<svg id="visual" viewBox="0 0 960 540" width="960" height="540" xmlns="http://www.w3.org/2000/svg" xmlns:xlink="http://www.w3.org/1999/xlink" version="1.1"><rect x="0" y="0" width="960" height="540" fill="#F2F3D9"></rect><path d="M0 431L192 435L384 388L576 349L768 386L960 421L960 541L768 541L576 541L384 541L192 541L0 541Z" fill="#151e3f"></path><path d="M0 474L192 466L384 449L576 478L768 379L960 441L960 541L768 541L576 541L384 541L192 541L0 541Z" fill="#111a3a"></path><path d="M0 477L192 455L384 415L576 485L768 485L960 451L960 541L768 541L576 541L384 541L192 541L0 541Z" fill="#0d1535"></path><path d="M0 463L192 435L384 492L576 443L768 470L960 448L960 541L768 541L576 541L384 541L192 541L0 541Z" fill="#0a1031"></path><path d="M0 475L192 491L384 472L576 471L768 482L960 487L960 541L768 541L576 541L384 541L192 541L0 541Z" fill="#07092c"></path><path d="M0 489L192 513L384 512L576 508L768 514L960 492L960 541L768 541L576 541L384 541L192 541L0 541Z" fill="#030027"></path></svg>